<svg id="Layer_1" data-name="Layer 1" xmlns="http://www.w3.org/2000/svg" viewBox="0 0 200 200"><defs><style>.cls-1{fill:#e5bc86;}</style></defs><title>JuiceVille_newicons</title><path class="cls-1" d="M166.47,85.06c-.38-2.07-1-4.1-1.51-6.14S163.5,75,162.78,73s-1.84-3.77-2.76-5.66A76.78,76.78,0,0,0,153,57a62.15,62.15,0,0,0-8.78-9l-1.3-1c-.45-.31-.77-.58-1.08-.84a20.94,20.94,0,0,1-2-2,29.72,29.72,0,0,1-3.3-4.66l-.91-1.59-1.56.89L128.5,42h0l-1.42.81.68,1.5a63.89,63.89,0,0,1,3,7.82,31.78,31.78,0,0,1,.92,4,15.74,15.74,0,0,1,.18,1.91l0,.89-.1,1.07a118.61,118.61,0,0,1-2.82,15.8c-1,1.29-1.95,2.58-2.91,3.88-1.58,2.13-3.16,4.25-4.78,6.3a109.83,109.83,0,0,1-8.74,9.92,80.79,80.79,0,0,1-21.2,15.4c-2,.95-4,1.89-6,2.67a53.68,53.68,0,0,1-6.21,2l-.19,0a60.65,60.65,0,0,1-6.22,1.15c-2.17.25-4.34.42-6.54.47-4.39.12-8.82-.12-13.33-.22-2.26,0-4.54-.05-6.85.13a41.48,41.48,0,0,0-7.64,1.28h0l-.4.1-.39.46-4,5.4,0,0-.72.85.46,1.12a14.39,14.39,0,0,0,.62,1.31c.2.41.43.78.66,1.17.46.76,1,1.49,1.48,2.2a27.79,27.79,0,0,0,7.75,7.05c.73.48,1.52.87,2.3,1.28.54.27,1.1.5,1.65.73l.12.23c.3.57.66,1.09,1,1.63a24.06,24.06,0,0,0,2.37,2.94,23.34,23.34,0,0,0,2.77,2.54,25.47,25.47,0,0,0,6.43,3.76,26.77,26.77,0,0,0,3.49,1.22c1.17.39,2.39.55,3.58.83.84.13,1.68.22,2.52.32l0,0a7.53,7.53,0,0,0,.76.78,12,12,0,0,0,1.49,1.1,22.49,22.49,0,0,0,3,1.57,53.78,53.78,0,0,0,6,2.22,58.88,58.88,0,0,0,12.41,2.3,61.79,61.79,0,0,0,12.62-.37,60.58,60.58,0,0,0,12.24-3.08l3-1.1,2.85-1.36,2.84-1.38,2.69-1.63,2.69-1.63c.86-.59,1.69-1.24,2.53-1.86a50,50,0,0,0,4.91-3.9c1.53-1.42,3.16-2.74,4.6-4.24l4.25-4.57c1.43-1.51,2.6-3.23,3.92-4.83l1.92-2.45a29,29,0,0,0,1.77-2.65l3.27-5.16c1.07-1.75,1.85-3.81,2.78-5.71l1.33-2.9c.34-1,.62-2,.93-3l.91-3a14.51,14.51,0,0,0,.71-3.08c.29-2.09.66-4.18.88-6.28l0-6.35C167.06,89.25,166.73,87.15,166.47,85.06ZM48.23,136.18l-.38-.17c-.66-.35-1.34-.68-2-1.09a23.08,23.08,0,0,1-3.59-2.69,22.83,22.83,0,0,1-3-3.32c-.45-.6-.86-1.22-1.25-1.85l-.53-1v0l2.9-4.62a30.19,30.19,0,0,1,5.79-1c2.15-.17,4.34-.17,6.55-.12,4.42.1,8.93.35,13.48.22,2.27-.06,4.55-.23,6.83-.5a63.63,63.63,0,0,0,6.77-1.26,57.13,57.13,0,0,0,6.54-2.11c2.18-.86,4.21-1.8,6.27-2.8a83.85,83.85,0,0,0,22-16,112.85,112.85,0,0,0,9-10.19c1-1.26,1.95-2.54,2.9-3.82A89.74,89.74,0,0,1,123,92.62c-.63,1.26-1.22,2.54-1.88,3.78l-2.1,3.65-2.35,3.47c-.83,1.12-1.75,2.17-2.61,3.26a48.81,48.81,0,0,1-6,5.77,78.7,78.7,0,0,1-6.74,5.06A76.55,76.55,0,0,1,94,121.72a36.45,36.45,0,0,1-3.84,1.71,39.48,39.48,0,0,1-3.94,1.47A67.32,67.32,0,0,1,78,127.13c-2.75.6-5.55,1-8.37,1.4l-8.56,1c-2.88.39-5.87.66-8.93,2.22h0l-.28.13-.17.25a25.53,25.53,0,0,1-2,2.53A17.88,17.88,0,0,1,48.23,136.18ZM163.46,97.44c-.21,1.94-.56,3.88-.83,5.82a12.78,12.78,0,0,1-.67,2.86l-.85,2.82c-.29.94-.55,1.89-.86,2.82L159,114.4c-.87,1.75-1.5,3.55-2.56,5.28l-3.28,5.16a25.06,25.06,0,0,1-1.63,2.42l-1.86,2.36c-1.27,1.54-2.41,3.21-3.79,4.65l-4.09,4.37c-1.39,1.43-2.94,2.68-4.4,4a46.63,46.63,0,0,1-4.67,3.69c-.8.58-1.58,1.19-2.4,1.75l-2.54,1.53-2.54,1.53-2.67,1.28-2.67,1.27-2.77,1a56.61,56.61,0,0,1-11.43,2.85,57.76,57.76,0,0,1-11.77.31,54.53,54.53,0,0,1-11.58-2.18,50.2,50.2,0,0,1-5.45-2,18.58,18.58,0,0,1-2.44-1.29,8.07,8.07,0,0,1-1-.71h0l.57-1.84A40.17,40.17,0,0,1,77.32,147a45.25,45.25,0,0,1,4-2.72,39.22,39.22,0,0,1,4.24-2.21A28.46,28.46,0,0,1,90,140.58c1.51-.4,3.29-.76,4.9-1.22s3.29-.93,4.92-1.42,3.25-1,4.85-1.68,3.19-1.24,4.76-1.92,3.11-1.45,4.65-2.19,3-1.58,4.49-2.53a50.71,50.71,0,0,0,4.31-2.84c1.44-.95,2.72-2.12,4.08-3.19s2.57-2.32,3.73-3.61a39.51,39.51,0,0,0,3.32-4,36.05,36.05,0,0,0,2.86-4.42c.93-1.52,1.47-3.05,2.22-4.58,0,0,.76-1.71-.49-2.23s-1.89,1.11-1.89,1.11c-.76,1.47-1.39,3.12-2.26,4.45a33.51,33.51,0,0,1-2.7,4,36.71,36.71,0,0,1-3.18,3.69c-1.11,1.19-2.37,2.24-3.57,3.33s-2.53,2.07-3.92,2.95a47.71,47.71,0,0,1-4.15,2.63c-1.39.87-2.89,1.55-4.34,2.34s-3,1.42-4.51,2-3.06,1.23-4.62,1.77-3.14,1-4.71,1.54-3.18.91-4.79,1.29-3.15.7-4.91,1.13A33,33,0,0,0,84,138.57a43.12,43.12,0,0,0-4.74,2.36,49.17,49.17,0,0,0-4.4,2.89,42.6,42.6,0,0,0-4.1,3.41h0l-.35.35-.15.49-.52,1.67c-.54-.06-1.09-.12-1.63-.21-1-.25-2.14-.38-3.15-.73a22.73,22.73,0,0,1-3-1.06,21.38,21.38,0,0,1-5.47-3.19,19.26,19.26,0,0,1-2.32-2.13,19.94,19.94,0,0,1-2-2.44c-.28-.43-.57-.87-.81-1.32-.12-.2-.24-.43-.34-.65.32-.49.69-.94,1-1.41a26.2,26.2,0,0,1,1.85-2.14,24.58,24.58,0,0,1,7.56-1.75l8.58-1c2.88-.36,5.78-.82,8.64-1.45A70.48,70.48,0,0,0,87.2,128a42.18,42.18,0,0,0,4.13-1.54,39.05,39.05,0,0,0,4-1.8,79.66,79.66,0,0,0,7.7-4.31,82.61,82.61,0,0,0,7-5.29,52.41,52.41,0,0,0,6.41-6.13c.92-1.16,1.9-2.28,2.78-3.47l2.49-3.67,2.2-3.83c.68-1.3,1.3-2.63,2-3.95a101.34,101.34,0,0,0,5.83-16.52,121.46,121.46,0,0,0,3.29-17.18l.12-1.08.06-1.26a19,19,0,0,0-.19-2.38,35.06,35.06,0,0,0-1-4.44,65.75,65.75,0,0,0-2.44-6.81l2.72-1.54a33,33,0,0,0,2.76,3.76,24.45,24.45,0,0,0,2.34,2.35c.47.39.94.77,1.33,1l1.14.86a58.83,58.83,0,0,1,8.2,8.5,73.14,73.14,0,0,1,6.67,9.84c.85,1.78,1.79,3.53,2.58,5.33s1.46,3.67,2,5.55,1,3.8,1.39,5.72.54,3.89.71,5.84Z"/></svg>