<svg id="Layer_1" data-name="Layer 1" xmlns="http://www.w3.org/2000/svg" viewBox="0 0 200 200"><defs><style>.cls-1{fill:#478d5b;}</style></defs><title>JuiceVille_newicons</title><path class="cls-1" d="M163.29,149.36c-.34-.94-34.26-94.24-37-102.1-3.18-9-.16-15.73,1.83-20.16,1.28-2.84,2.49-5.53.87-8.1a5.59,5.59,0,0,0-4.83-2.63c-2.41,0-4.87,1.39-7.3,3,.5-3.87.62-7.07-2.33-8.92a5.14,5.14,0,0,0-2.83-.51h0c-2.64,0-5.28,1.53-7.86,5.13A32.35,32.35,0,0,0,100.43,21c.19-.73.37-1.5.55-2.16,1.1-4.08,2.24-8.34-1.43-10.55a6.54,6.54,0,0,0-3.41-1c-4,0-7.46,3.35-10.54,6.32l-1.34,1.27c-.36-.47-.73-1-1-1.4-2.42-3.34-4.92-6.8-8.74-6.8h0A5.72,5.72,0,0,0,72.68,7c-4.89,1.63-4.32,7.55-3.9,11.87,0,.37.08.79.11,1.22L68,19.83a30.42,30.42,0,0,0-8.11-1.55,8.78,8.78,0,0,0-5.92,2A5.23,5.23,0,0,0,52,24.74c.22,2.51,2,4,4.24,5.4a20,20,0,0,0-6.79-1.4c-4,0-5.58,2-6.16,3.22-1.72,3.54,1,6.77,3.43,9.63.33.38.73.86,1.12,1.35h-.14l-.81.07c-3.78.34-11.64,1-11.64,6.91,0,3.57,3.16,5.21,6.22,6.79C45.87,59,52.55,62.46,55.94,71.5L93.36,174.72c4,11.17,15.85,18.39,30.07,18.39a44.45,44.45,0,0,0,15.17-2.71C157.89,183.4,169,165,163.29,149.36Zm-66.06,24L59.79,70.05C53.87,54.26,39.34,53.12,39.34,49.92c0-2.07,5.73-2.62,7.89-2.81,3.44-.31,6.2-.37,6.17-2.32,0-3.38-7.53-8.8-6.44-11,.29-.59,1.18-.91,2.47-.91,5.24,0,17.07,5.17,22,17.64L112.76,165a2.06,2.06,0,0,0,3.87-1.4L73.35,43.75A31.24,31.24,0,0,0,62.84,29.42c-3.94-2.74-8.31-4.25-6.23-6.05a4.82,4.82,0,0,1,3.23-1c3.85,0,9.08,2.4,11.56,2.4a1.82,1.82,0,0,0,1-.23C74.57,23.12,70.72,12,74,10.91a1.6,1.6,0,0,1,.51-.08c3.17,0,7,9,9.37,9.16h.07c2.31,0,8.16-8.57,12.2-8.57a2.46,2.46,0,0,1,1.29.35C100.05,13.36,92.09,25,96,38.7c.66,2.33,42.33,117.05,42.33,117.05a2.06,2.06,0,0,0,3.87-1.4L102.71,45.08c-5.15-15,4.91-31.56,9-31.56a1.22,1.22,0,0,1,.66.18c2.11,1.32-1.57,11.79.37,12.92a.52.52,0,0,0,.27.06c1.81,0,8.06-6.19,11.17-6.19a1.49,1.49,0,0,1,1.35.71c1.44,2.28-8.5,12.11-3.1,27.43,2.81,8,37,102.14,37,102.14,4.9,13.5-5.07,29.54-22.22,35.76A40.53,40.53,0,0,1,123.44,189C111.34,189,100.81,183.17,97.23,173.31Zm37.57,7.53a8,8,0,0,1-3.76,1,5.41,5.41,0,0,1-4.62-2.35c-2.32-3.93.74-8.24,4.75-9.67a10.84,10.84,0,0,1,3.65-.67c4.55,0,6.92,3.4,6.06,4.28a1.12,1.12,0,0,1-.82.39c-1.25,0-2.74-2.23-5.61-2.23a6.49,6.49,0,0,0-2,.35c-4.69,1.54-4,6.38-1,6.38a3.68,3.68,0,0,0,1.61-.41c1.22-.6.32-.92.13-1a1.62,1.62,0,0,1-1.43-1.35,2.11,2.11,0,0,1,2.31-2.29,3.35,3.35,0,0,1,3.39,3A4.43,4.43,0,0,1,134.81,180.84Z"/></svg>