<svg id="Layer_1" data-name="Layer 1" xmlns="http://www.w3.org/2000/svg" viewBox="0 0 1000 1000"><defs><style>.cls-1{fill:#478d5b;}.cls-2{fill:#be2168;}</style></defs><title>Artboard 1</title><path class="cls-1" d="M232,274V411.59c0,19-9.78,29.37-26.49,29.37-13.25,0-29.23-7.78-42.76-22.46l-18.07,28.8c15.84,19.29,36.66,30.24,62,30.24,39.74,0,64.31-23.61,64.31-65.08V274Z"/><path class="cls-1" d="M452.53,321.74V475.81H414.81V447.3c-10.66,20.45-29.09,29.95-53.56,29.95-34.56,0-55.87-22.75-55.87-59V321.74H343.1v85.53c0,21.6,12.38,34.56,33.12,34.56,24.19-.29,38.59-19.29,38.59-44.06v-76Z"/><path class="cls-1" d="M528.68,277.68c0,12.67-8.64,22.17-21,22.17s-21-9.5-21-22.17c0-13,8.64-22.17,21-22.17S528.68,264.72,528.68,277.68Zm-2.3,44.06V475.81H488.93V321.74Z"/><path class="cls-1" d="M630.53,353.42c-24.77,0-42,18.43-42,45.5,0,27.65,17.28,46.08,42,46.08,17.85,0,32.25-6,41.47-18.14l23.33,19.29c-13.54,19.58-36.57,31.1-66.81,31.1-46.08,0-77.75-31.68-77.75-78,0-46.94,32-78.62,78.33-78.62,28.22,0,50.68,10.37,64.51,28.22l-22.75,21.6C661.06,359.75,647.52,353.42,630.53,353.42Z"/><path class="cls-1" d="M854.93,411.88H741.18c4.9,21.89,21.6,35.13,44.06,35.13a57.22,57.22,0,0,0,41.47-17.28l20.16,21c-15.26,16.7-37.72,26.49-64.79,26.49-47.8,0-79.19-31.68-79.19-78,0-46.94,32.25-78.62,78.33-78.62C835.34,320.59,858.67,356,854.93,411.88Zm-34-25.05c-.86-22.75-16.13-37.15-39.45-37.15-22.17,0-37.73,14.4-41.18,37.15Z"/><path class="cls-2" d="M250.22,541.47l59.32,158.68,59.9-158.68h39.74L328.55,743.06h-40L208.75,541.47Z"/><path class="cls-2" d="M466.46,544.93c0,12.67-8.64,22.17-21,22.17s-21-9.5-21-22.17c0-13,8.64-22.17,21-22.17S466.46,532,466.46,544.93ZM464.16,589V743.06H426.72V589Z"/><path class="cls-2" d="M538.17,529.38V743.06H500.73V529.38Z"/><path class="cls-2" d="M612.78,529.38V743.06H575.34V529.38Z"/><path class="cls-2" d="M790.87,679.13H677.11c4.9,21.89,21.6,35.13,44.06,35.13A57.21,57.21,0,0,0,762.64,697l20.16,21c-15.26,16.7-37.73,26.49-64.8,26.49-47.8,0-79.19-31.68-79.19-78,0-46.94,32.25-78.62,78.33-78.62C771.28,587.84,794.61,623.26,790.87,679.13Zm-34-25.05c-.86-22.75-16.13-37.15-39.45-37.15-22.17,0-37.72,14.4-41.18,37.15Z"/></svg>