<svg id="Layer_1" data-name="Layer 1" xmlns="http://www.w3.org/2000/svg" viewBox="0 0 1500 500"><defs><style>.cls-1{fill:#478d5b;}.cls-2{fill:#be2168;}</style></defs><title>Artboard 1_</title><path class="cls-1" d="M192,157V295.07c0,19-9.91,29.37-26.61,29.37-13.25,0-29.29-7.78-42.82-22.46l-18.1,28.8C120.3,350.07,141.24,361,166.58,361,206.32,361,231,337.4,231,295.93V157Z"/><path class="cls-1" d="M412.28,205.22V359.29H374.56V330.78c-10.66,20.45-29.09,29.95-53.56,29.95-34.56,0-55.87-22.75-55.87-59V205.22h37.73v85.53c0,21.6,12.38,34.56,33.12,34.56,24.19-.29,38.59-19.29,38.59-44.06v-76Z"/><path class="cls-1" d="M488.43,161.16c0,12.67-8.64,22.17-21,22.17s-21-9.5-21-22.17c0-13,8.64-22.17,21-22.17S488.43,148.2,488.43,161.16Zm-2.3,44.06V359.29H448.68V205.22Z"/><path class="cls-1" d="M590.28,236.9c-24.77,0-42,18.43-42,45.5,0,27.65,17.28,46.08,42,46.08,17.85,0,32.25-6,41.47-18.14l23.33,19.29c-13.54,19.58-36.57,31.1-66.81,31.1-46.08,0-77.75-31.68-77.75-78,0-46.94,32-78.62,78.33-78.62,28.22,0,50.68,10.37,64.51,28.22l-22.75,21.6C620.81,243.23,607.27,236.9,590.28,236.9Z"/><path class="cls-1" d="M814.68,295.36H700.92c4.9,21.89,21.6,35.13,44.06,35.13a57.22,57.22,0,0,0,41.47-17.28l20.16,21c-15.26,16.7-37.72,26.49-64.79,26.49-47.8,0-79.19-31.68-79.19-78,0-46.94,32.25-78.62,78.33-78.62C795.09,204.07,818.42,239.49,814.68,295.36Zm-34-25.05c-.86-22.75-16.13-37.15-39.45-37.15-22.17,0-37.73,14.4-41.18,37.15Z"/><path class="cls-2" d="M844.53,158l59.32,158.68L963.76,158h39.74L922.86,359.58h-40L803.06,158Z"/><path class="cls-2" d="M1060.78,161.45c0,12.67-8.64,22.17-21,22.17s-21-9.5-21-22.17c0-13,8.64-22.17,21-22.17S1060.78,148.49,1060.78,161.45Zm-2.3,44.06V359.58H1021V205.51Z"/><path class="cls-2" d="M1132.48,145.9V359.58H1095V145.9Z"/><path class="cls-2" d="M1207.09,145.9V359.58h-37.44V145.9Z"/><path class="cls-2" d="M1385.18,295.65H1271.43c4.9,21.89,21.6,35.13,44.06,35.13A57.21,57.21,0,0,0,1357,313.5l20.16,21c-15.26,16.7-37.73,26.49-64.8,26.49-47.8,0-79.19-31.68-79.19-78,0-46.94,32.25-78.62,78.33-78.62C1365.6,204.36,1388.92,239.78,1385.18,295.65Zm-34-25.05c-.86-22.75-16.13-37.15-39.45-37.15-22.17,0-37.72,14.4-41.18,37.15Z"/></svg>