<svg id="Layer_1" data-name="Layer 1" xmlns="http://www.w3.org/2000/svg" viewBox="0 0 200 200"><defs><style>.cls-1{fill:#478d5b;}</style></defs><title>JuiceVille_newicons</title><path class="cls-1" d="M161.19,140.15c-.08-8.54-.63-17.52-1.61-26.65-.55-5.06-1.1-9.28-1.75-13.27s-1.39-8.36-2.38-13.14c-.82-4-1.84-8.28-3.12-13l-1.87-6.44c-.64-2.05-1.35-4.16-2.2-6.51a108.55,108.55,0,0,0-12.46-24.59,66.94,66.94,0,0,0-9.25-10.87c-4.53-4.15-8.69-6.73-13.15-8.16a21.87,21.87,0,0,0-6.65-1.08,19.12,19.12,0,0,0-2.17.12A18.25,18.25,0,0,0,96,19.88c-4.68,3.17-7.57,10.37-7.19,17.94.13,2.59.26,5.66.38,7.55-1.91-.45-5.14-1.48-5.29-1.51l-.59-.25-3.77-1.73a51.08,51.08,0,0,0-9.09-3.2,31.66,31.66,0,0,0-7.35-.92,25.68,25.68,0,0,0-3.15.19,23.32,23.32,0,0,0-10.44,3.89,22.2,22.2,0,0,0-7.63,8.44,23.24,23.24,0,0,0-2.22,11,59.22,59.22,0,0,0,2.17,12.75c.43,1.73.84,3.37,1.15,5a13.07,13.07,0,0,1,.27,2.72,16.3,16.3,0,0,1-.65,2.11l-.17.49c-.26.71-.57,1.47-.89,2.25a39.26,39.26,0,0,0-2.2,6.47,22.92,22.92,0,0,0,.46,11.31A24.57,24.57,0,0,0,40.7,107l0,.1,0,.1a18.7,18.7,0,0,0,1.5,2.74,19.77,19.77,0,0,0,3.93,4.41,37.27,37.27,0,0,0,6.91,4.49l1.25.69.72.41c0,.16,0,.32-.06.46v.1c-.41,3-.92,6.72.16,10.68a19.27,19.27,0,0,0,6.73,10c.2.17.33.28.72.57l.14.1.15.09a6.19,6.19,0,0,0,.75.45A13.31,13.31,0,0,0,65,143l.18.08.1,0,.1,0,2.08.77.25.09c1.24.44,2.41.86,3.48,1.32a13.52,13.52,0,0,1,2.56,1.34,3.21,3.21,0,0,1,.6.58,8.39,8.39,0,0,1,.6.86,19.3,19.3,0,0,1,1.42,3.2,40.88,40.88,0,0,0,1.84,4.3,15.74,15.74,0,0,0,1.93,2.89l.06.07.07.07.45.49.14.15.1.1.1.1.16.15.09.08.1.08.2.16a12.08,12.08,0,0,0,1.52,1.1,29.18,29.18,0,0,0,4.79,2.29l0,0,.17.07c4.69,1.73,9.36,3,13.88,4.27l3,.83,3,.83c4.53,1.23,8.8,2.39,13,3.9,5.22,1.89,7.7,5,9.51,6.74,1.65,1.57,3.36,4,6,4h.16c5.82,0,16.31-7.17,19.81-11.2C161.39,167.22,161.2,140.41,161.19,140.15Zm-7.75,29.18a17.27,17.27,0,0,1-1.94,1.82l.1-1.84c.09-1.7.22-3.76.23-6.13s.15-5,.05-8-.13-6.07-.34-9.4-.37-6.84-.74-10.46-.69-7.36-1.17-11.15-1.06-7.62-1.6-11.46c-1.29-7.65-3-15.22-4.74-22.27-.93-3.51-1.81-6.91-2.78-10.1s-1.88-6.2-2.83-9c-1.79-5.53-3.8-10-5.13-13.12l-2.28-4.78a1,1,0,0,0-1.81.78l1.89,4.94,1.9,5.69c.63,2.25,1.49,4.72,2.25,7.48.07.23.14.49.21.73-.44-.25-.87-.49-1.33-.73-1.36-.72-2.74-1.37-3.8-1.84l-1.31-.55-.48-.18a1,1,0,0,0-.8,1.8l.46.24,1.13.65c.94.57,2.19,1.36,3.4,2.2s2.37,1.72,3.17,2.41c.39.33.68.61.89.81.29,1.11.58,2.22.87,3.38.82,3.18,1.54,6.57,2.3,10.06s1.44,7.14,2,10.85c.48,2.51.84,5.07,1.22,7.64-.6-.39-1.21-.77-1.84-1.14a50.93,50.93,0,0,0-5-2.62c-.69-.31-1.37-.58-1.77-.72l-.65-.22a1,1,0,0,0-1.2.51,1,1,0,0,0,.46,1.32l.62.31c.39.21.85.46,1.48.86a48.33,48.33,0,0,1,4.35,3.11,40.49,40.49,0,0,1,3.92,3.5l.47.53c.44,3.17.92,6.34,1.23,9.48.44,3.73.81,7.41,1.06,11s.45,7,.64,10.28.17,6.37.26,9.22c0,5.71.13,10.47,0,13.8l-.1,3.39-.41-1.38c-.46-1.57-1-3.49-1.83-5.6s-1.56-4.6-2.77-7.12-2.31-5.36-3.85-8.16-3-5.85-4.82-8.83S129,135.36,127,132.3c-.38-.59-.8-1.17-1.2-1.75.11-.39.2-.81.3-1.28a44.69,44.69,0,0,0,.55-5.59,52.05,52.05,0,0,0,0-5.54c0-.74-.12-1.45-.18-1.86l-.11-.67a1,1,0,0,0-2,.18v.67c0,.44,0,1-.07,1.68a49.49,49.49,0,0,1-.7,5.2c-.2,1.07-.43,2.12-.67,3.07-.76-1.06-1.52-2.12-2.28-3.17-2.22-3-4.55-5.85-6.93-8.61s-4.78-5.42-7.09-8l-1.5-1.57.1-.38a10.94,10.94,0,0,0,.28-2.13,44.72,44.72,0,0,0-.17-5.62,52.07,52.07,0,0,0-.75-5.48c-.14-.73-.31-1.42-.42-1.83L104,89a1,1,0,0,0-1.1-.7,1,1,0,0,0-.82,1.13l.1.67c.06.43.11.94.14,1.67a49.48,49.48,0,0,1,0,5.24,44.18,44.18,0,0,1-.48,4.6c-.7-.72-1.41-1.46-2.11-2.14-2.24-2.25-4.41-4.32-6.43-6.2-4-3.81-7.64-6.68-10.11-8.75l-4-3.13a1,1,0,0,0-1.29,1.5l3.68,3.45,4.1,4,5.24,5.31c1.91,1.95,4,4.08,6.06,6.4l.54.6a85.36,85.36,0,0,0-9.22-.56,91,91,0,0,0-10,.47c-2.72.28-4.5.59-4.5.59h0a1,1,0,0,0,.27,2s1.78-.17,4.43-.24a88.25,88.25,0,0,1,9.71.29,90.4,90.4,0,0,1,13.59,2.25l1.73,2c2.15,2.64,4.45,5.31,6.59,8.17s4.29,5.78,6.48,8.66l1.38,1.94a93.63,93.63,0,0,0-11.28-1.73,91.84,91.84,0,0,0-12.1-.27c-3.31.14-5.47.43-5.47.43H89a1,1,0,0,0,.2,2s2.16-.15,5.36-.08A87.74,87.74,0,0,1,117.72,132c1.56.47,2.83.89,3.71,1.19.42.63.86,1.26,1.27,1.89,1.92,3,3.8,5.95,5.43,8.91,1.26,2.09,2.34,4.18,3.39,6.23-1.94-.48-4.21-1-6.51-1.34-3-.51-6.1-.72-8.4-.87a28.89,28.89,0,0,0-3.83,0h0a.89.89,0,0,0-1,.75.93.93,0,0,0,.87,1A84.47,84.47,0,0,1,124.37,152a88.75,88.75,0,0,1,9.55,3.09c.89,1.91,1.64,3.77,2.45,5.49,1.11,2.46,1.92,4.79,2.76,6.81s1.41,3.84,1.89,5.33c.63,1.94,1.08,3.64,1.32,4.39-2.17,1-4.19,1.93-5.6,1.93h-.08c-2.74,0-4.23-5.66-14.23-9.29-5.28-1.92-10.8-3.47-16.29-5s-11-3-16.55-5.07a26.36,26.36,0,0,1-4.24-2,8,8,0,0,1-1-.76l-.21-.18-.05,0-.16-.15-.11-.12-.45-.49a11.65,11.65,0,0,1-1.42-2.12c-1.49-2.9-2.08-5.61-3.4-7.74a12.79,12.79,0,0,0-1-1.42,7.59,7.59,0,0,0-1.31-1.23,17.3,17.3,0,0,0-3.38-1.8c-1.25-.53-2.56-1-3.9-1.47l-2.08-.77a12.22,12.22,0,0,1-1.24-.58,5.69,5.69,0,0,1-.52-.32c-.38-.27-.36-.29-.56-.45a15.25,15.25,0,0,1-5.34-7.9c-.87-3.2-.4-6.45,0-9.18a16.35,16.35,0,0,0,.16-1.9,3.65,3.65,0,0,0-.14-1.05h0a8.91,8.91,0,0,0-2.76-2,42.09,42.09,0,0,1-7.52-4.73,15.68,15.68,0,0,1-3.16-3.56,14.56,14.56,0,0,1-1.2-2.2,20.22,20.22,0,0,1-.77-2.17A18.74,18.74,0,0,1,43.33,94c.69-3.09,2-5.7,3-8.27a16.69,16.69,0,0,0,1-3.65A15.65,15.65,0,0,0,47,78.23c-1.05-5.37-3.06-11-3.24-17a19.35,19.35,0,0,1,1.79-9.08,18.3,18.3,0,0,1,6.25-6.86A19.35,19.35,0,0,1,60.43,42a21.44,21.44,0,0,1,2.64-.16,27.5,27.5,0,0,1,6.4.81,47.43,47.43,0,0,1,8.32,2.94l3.89,1.78.92.39c.37.14,9,2,13.77,4.58,9,4.75,18.23,21.85,18.34,22h0s.27.63.78.63a.73.73,0,0,0,.29-.07c.69-.3.14-1.47.14-1.47-1.56-5-8.82-21.35-22.46-26.28,0,0-.34-5-.57-9.6-.34-6.85,2.4-12.34,5.43-14.36a14.28,14.28,0,0,1,6.73-2.64,15,15,0,0,1,1.71-.1,17.81,17.81,0,0,1,5.4.88,31.79,31.79,0,0,1,11.59,7.24,62.58,62.58,0,0,1,8.68,10.21,105.41,105.41,0,0,1,12,23.65c.76,2.1,1.47,4.19,2.12,6.26l1.84,6.35c1.14,4.25,2.18,8.52,3.06,12.82s1.7,8.62,2.35,13,1.25,8.69,1.72,13c.94,8.72,1.5,17.49,1.59,26.28C157.15,144.62,156.52,165.8,153.44,169.34Z"/></svg>