<svg id="Layer_1" data-name="Layer 1" xmlns="http://www.w3.org/2000/svg" viewBox="0 0 200 200"><defs><style>.cls-1{fill:#be2168;}</style></defs><title>JuiceVille_newicons</title><path class="cls-1" d="M163.8,73.74l-.08-.08-4.54-4.76-1.31-1.38-1.23,1.39-.07.08a24.55,24.55,0,0,1-4.42,3.79c-1,.73-2.15,1.42-3.26,2.08a42.13,42.13,0,0,0-1.47-5.45A33.54,33.54,0,0,0,146,65.74c-.49-1.22-1.18-2.36-1.77-3.53a41.27,41.27,0,0,0-10.28-11.93A34.87,34.87,0,0,0,130.65,48a30.42,30.42,0,0,0-3.52-1.9l-.43-.2-.59-.24a5.68,5.68,0,0,0-1.35-.31,3.18,3.18,0,0,0-2,.43,2.84,2.84,0,0,0-1.27,2.1,4.58,4.58,0,0,0,0,.64,23.47,23.47,0,0,0-7.59-4,29.73,29.73,0,0,0-12.72-1,37.09,37.09,0,0,0-6.63,1.35,35.93,35.93,0,0,0-6.44,2.82,65.44,65.44,0,0,0-11.69,8.45A129.21,129.21,0,0,0,56.14,79.22a142.43,142.43,0,0,0-15.68,28.86,74.56,74.56,0,0,0-4.55,16.5,37.3,37.3,0,0,0-.24,8.86,18.06,18.06,0,0,0,3.1,8.79c3.78,5.2,9.41,7.93,14.81,9.88a85,85,0,0,0,16.67,3.79,172.56,172.56,0,0,0,32.82.9,154.62,154.62,0,0,0,30.41-4.61,52.45,52.45,0,0,0,7-2.43,23.31,23.31,0,0,0,3.38-1.8l.88-.64.66-.55c.44-.38.86-.69,1.33-1.17a28.54,28.54,0,0,0,7.5-11.88l0-.11.05.08a3,3,0,0,0,.71.68,2.4,2.4,0,0,0,1.53.4,2.69,2.69,0,0,0,2-1.26,6.82,6.82,0,0,0,.82-2v-.05A75.08,75.08,0,0,0,161.25,120c.15-1.92.25-3.84.26-5.77s-.05-3.86-.22-5.79a54.6,54.6,0,0,0-.75-5.77A46.19,46.19,0,0,0,159.14,97c-.25-.95-.63-1.86-1-2.79s-.78-1.82-1.17-2.73a31.83,31.83,0,0,0-1.86-3.31,23.17,23.17,0,0,0,7.42-8.41c.34-.66.65-1.34.93-2l.39-1.07c.13-.37.23-.7.34-1.18l.26-1Zm-12.41,12-.1.06L149.35,87l1.3,1.82a31.07,31.07,0,0,1,2.71,4.48c.36.81.79,1.58,1.08,2.43s.66,1.65.9,2.52a42.23,42.23,0,0,1,1.33,5.22,50.81,50.81,0,0,1,.76,5.38c.18,1.81.25,3.63.26,5.45s-.06,3.65-.18,5.47a71.69,71.69,0,0,1-1.23,8.75c-.55-1.93-1.14-3.81-1.79-5.68-.71-2.06-1.52-4.09-2.38-6.11a41.69,41.69,0,0,0-3.07-6v0l-1.21-1.92-1.45,1.85a45.73,45.73,0,0,1-4.55,4.93,43.38,43.38,0,0,1-5.22,4.25c-.92.63-1.86,1.22-2.83,1.76-.46.24-1,.57-1.4.73a1.38,1.38,0,0,1-.71.15c-.11,0,0,0-.13-.1a1.61,1.61,0,0,1-.11-.74,12.71,12.71,0,0,1,.25-1.46l.33-1.73c.87-4.62,1.63-9.25,2.19-14,.28-2.35.5-4.72.58-7.13a28.89,28.89,0,0,0-.52-7.54v-.06l-.07-.31-.21-.29c-.69-1-1.33-1.73-2-2.55s-1.4-1.58-2.12-2.34c-1.44-1.53-3-2.95-4.52-4.35a76.59,76.59,0,0,0-10-7.56l-2.58-1.61a2.24,2.24,0,0,1-.51-.52l0-.08a2.72,2.72,0,0,1,1.34-.7c.93-.34,1.84-.63,2.79-.9a26,26,0,0,1,5.69-1,12.69,12.69,0,0,1,5.42.75l.06,0,2.84,1L130,66.18a60.32,60.32,0,0,0-1.42-7.75,50.43,50.43,0,0,0-2.47-7.49c-.29-.64-.59-1.29-.81-1.8l.37.17A26.25,26.25,0,0,1,128.85,51a31.44,31.44,0,0,1,3,2,30.81,30.81,0,0,1,2.78,2.33c.9.81,1.72,1.7,2.55,2.59a34.42,34.42,0,0,1,2.24,2.86c.74,1,1.32,2,2,3.06s1.18,2.12,1.63,3.26a30.45,30.45,0,0,1,1.33,3.39,45.52,45.52,0,0,1,1.78,7.09l0,.11.44,2.23,1.94-1A58.54,58.54,0,0,0,154,75.48a33.2,33.2,0,0,0,3.72-3L160,75.47l-.28.77c-.23.56-.48,1.12-.77,1.66a18.41,18.41,0,0,1-2,3.08A19.09,19.09,0,0,1,151.39,85.73Zm-9.22,58.48-.52.37a19.43,19.43,0,0,1-2.78,1.47,48.57,48.57,0,0,1-6.47,2.23,150.81,150.81,0,0,1-29.57,4.45,168.57,168.57,0,0,1-32-.88A81.06,81.06,0,0,1,55,148.25c-5-1.81-10-4.32-12.9-8.33s-2.92-9.53-2.29-14.82A70.85,70.85,0,0,1,44,109.43a137.38,137.38,0,0,1,15.1-28.19A125.74,125.74,0,0,1,78.6,58.62c7.14-6.2,14.85-11.07,22.94-11.61a25.75,25.75,0,0,1,11.19.93,20.86,20.86,0,0,1,8.41,5.29,31.51,31.51,0,0,1,3.14,3.83c.21.75.43,1.5.61,2.26.37,1.59.65,3.22.88,4.84a33.28,33.28,0,0,0-10.31,1.16c-1,.27-2,.59-3,.93A5,5,0,0,0,109,69a3.42,3.42,0,0,0,.28,2.88,5.39,5.39,0,0,0,1.57,1.69l2.58,1.67a73,73,0,0,1,9.37,7.36A57.1,57.1,0,0,1,127,86.83c.65.74,1.29,1.5,1.9,2.26s1,1.35,1.47,2a26.62,26.62,0,0,1,.47,6.11c0,2.25-.19,4.53-.42,6.82-.44,4.57-1.14,9.15-1.93,13.71l-.31,1.71a14.49,14.49,0,0,0-.29,2,5,5,0,0,0,.59,2.64,3.72,3.72,0,0,0,2.65,1.82,4.9,4.9,0,0,0,2.68-.43c.69-.32,1.12-.6,1.69-.9,1.06-.61,2.09-1.27,3.08-2a46.77,46.77,0,0,0,5.56-4.64c1.14-1.11,2.21-2.27,3.25-3.48.56,1.15,1.1,2.35,1.59,3.56.79,2,1.49,4,2.18,6,.24.71.44,1.44.66,2.16a33.26,33.26,0,0,1-1.37,6.29,24.58,24.58,0,0,1-6.36,10.14,15.7,15.7,0,0,1-1.24,1.09Zm2.27-10.92-.52,1.3-.68,1.23a12,12,0,0,1-.7,1,7.3,7.3,0,0,1-.83.93.75.75,0,0,1-1.25-.57,7.29,7.29,0,0,1,.16-1.24,12,12,0,0,1,.32-1.2l.49-1.32.64-1.25a11.85,11.85,0,0,1,.67-1,7.1,7.1,0,0,1,.8-.94.86.86,0,0,1,1.45.66,7.12,7.12,0,0,1-.19,1.22A11.82,11.82,0,0,1,144.43,133.29ZM109,58.32a11.8,11.8,0,0,1-1.16.41l-1.36.34-1.39.17a12,12,0,0,1-1.24,0,7.29,7.29,0,0,1-1.24-.13.75.75,0,0,1-.27-1.34,7.3,7.3,0,0,1,1.09-.6,12.08,12.08,0,0,1,1.16-.45l1.35-.38,1.38-.22a11.86,11.86,0,0,1,1.23-.07,7.11,7.11,0,0,1,1.23.09.86.86,0,0,1,.32,1.57A7.09,7.09,0,0,1,109,58.32Zm14.83,84.61a.87.87,0,0,1-.4.54,7.11,7.11,0,0,1-1.13.51,11.81,11.81,0,0,1-1.18.36l-1.37.28-1.4.11a12,12,0,0,1-1.24,0,7.3,7.3,0,0,1-1.23-.18.75.75,0,0,1-.21-1.35,7.3,7.3,0,0,1,1.12-.55,12.06,12.06,0,0,1,1.17-.4l1.37-.32,1.39-.15a11.85,11.85,0,0,1,1.23,0,7.11,7.11,0,0,1,1.23.15A.86.86,0,0,1,123.79,142.93Zm-28.14.23a.86.86,0,0,1-.09,1.6,7.11,7.11,0,0,1-1.21.27,11.8,11.8,0,0,1-1.23.1l-1.4,0-1.39-.18a12,12,0,0,1-1.21-.28,7.3,7.3,0,0,1-1.17-.44.75.75,0,0,1,.08-1.37,7.29,7.29,0,0,1,1.21-.3,12,12,0,0,1,1.23-.14l1.4,0,1.39.14a11.82,11.82,0,0,1,1.21.24A7.12,7.12,0,0,1,95.64,143.16Zm20.12-19.59a11.85,11.85,0,0,1-1.18.36l-1.37.28-1.4.11a12,12,0,0,1-1.24,0,7.29,7.29,0,0,1-1.23-.18.75.75,0,0,1-.21-1.35,7.3,7.3,0,0,1,1.12-.55,12,12,0,0,1,1.17-.4l1.37-.32,1.39-.15a11.8,11.8,0,0,1,1.23,0,7.12,7.12,0,0,1,1.23.15.86.86,0,0,1,.25,1.58A7.12,7.12,0,0,1,115.77,123.57Zm-29,1.62a.75.75,0,0,1-.44.44s-.46.1-1.16.3c-.35.07-.76.16-1.2.21a13,13,0,0,1-1.39-.14h-1.4c-.45,0-.87.22-1.23.19a2.25,2.25,0,0,0-1.22.13.81.81,0,0,1-.1-1.44,6.61,6.61,0,0,1,1.16-.47,11.87,11.87,0,0,1,1.2-.31l1.39-.21,1.4,0a11.84,11.84,0,0,1,1.23.08,7.13,7.13,0,0,1,1.21.24A.8.8,0,0,1,86.74,125.19Zm.59-53.77a.87.87,0,0,1-.09.66,7.11,7.11,0,0,1-.75,1,11.86,11.86,0,0,1-.87.87l-1.08.89-1.18.76a12,12,0,0,1-1.1.57,7.29,7.29,0,0,1-1.17.42.75.75,0,0,1-.82-1.09,7.29,7.29,0,0,1,.73-1,12,12,0,0,1,.85-.9l1.06-.93L84,71.86a11.84,11.84,0,0,1,1.08-.6,7.12,7.12,0,0,1,1.15-.45A.86.86,0,0,1,87.33,71.42ZM61.43,98.89a.75.75,0,0,1,0-.54,7.28,7.28,0,0,1,.5-1.14,12,12,0,0,1,.64-1.06L63.37,95l1-1a11.83,11.83,0,0,1,.93-.81,7.11,7.11,0,0,1,1-.68.86.86,0,0,1,1.21,1A7.13,7.13,0,0,1,67,94.68a11.86,11.86,0,0,1-.67,1l-.87,1.1-1,1a12,12,0,0,1-1,.79,7.29,7.29,0,0,1-1.06.66A.75.75,0,0,1,61.43,98.89Zm6.13,41.65a.86.86,0,0,1-.42,1.54,7.1,7.1,0,0,1-1.24,0,11.86,11.86,0,0,1-1.22-.15l-1.37-.31L62,141.18a12,12,0,0,1-1.12-.52,7.28,7.28,0,0,1-1.05-.67.75.75,0,0,1,.36-1.32,7.29,7.29,0,0,1,1.25,0,12,12,0,0,1,1.23.12L64,139l1.33.43a11.86,11.86,0,0,1,1.13.49A7.12,7.12,0,0,1,67.56,140.55ZM54.91,118.49a.87.87,0,0,1,.2.64,7.12,7.12,0,0,1-.25,1.21,11.83,11.83,0,0,1-.41,1.17l-.59,1.27-.73,1.2a12,12,0,0,1-.75,1,7.3,7.3,0,0,1-.88.89.75.75,0,0,1-1.22-.63,7.29,7.29,0,0,1,.22-1.23,12,12,0,0,1,.37-1.18l.55-1.29.7-1.22a11.86,11.86,0,0,1,.71-1,7.1,7.1,0,0,1,.84-.91A.86.86,0,0,1,54.91,118.49ZM78.5,107.93a12,12,0,0,1-1,.69,7.31,7.31,0,0,1-1.12.56.75.75,0,0,1-.95-1,7.3,7.3,0,0,1,.6-1.09,12,12,0,0,1,.74-1l.94-1,1.05-.92a11.83,11.83,0,0,1,1-.72,7.1,7.1,0,0,1,1.09-.58A.86.86,0,0,1,81.94,104a7.11,7.11,0,0,1-.63,1.07,11.82,11.82,0,0,1-.76,1l-1,1ZM94,87.71a.75.75,0,0,1,.13-.53,7.31,7.31,0,0,1,.83-.94,12,12,0,0,1,.93-.81l1.14-.82,1.23-.67a11.84,11.84,0,0,1,1.13-.49,7.11,7.11,0,0,1,1.19-.33.86.86,0,0,1,.83,1.37,7.11,7.11,0,0,1-.84.91,11.88,11.88,0,0,1-1,.78L98.5,87l-1.25.64A12,12,0,0,1,96.1,88a7.3,7.3,0,0,1-1.21.3A.75.75,0,0,1,94,87.71ZM124.13,96a.87.87,0,0,1-.25.62,7.1,7.1,0,0,1-1,.77,11.88,11.88,0,0,1-1.06.63l-1.27.6-1.33.45a12,12,0,0,1-1.21.28,7.29,7.29,0,0,1-1.24.12.75.75,0,0,1-.53-1.26,7.3,7.3,0,0,1,1-.8,12,12,0,0,1,1-.67l1.25-.64,1.31-.48a11.84,11.84,0,0,1,1.19-.31,7.11,7.11,0,0,1,1.23-.15A.86.86,0,0,1,124.13,96Zm-20.31,9.3a.87.87,0,0,1-.25.62,7.12,7.12,0,0,1-1,.77,11.86,11.86,0,0,1-1.06.63l-1.27.6-1.33.45a12,12,0,0,1-1.21.28,7.29,7.29,0,0,1-1.24.12.75.75,0,0,1-.53-1.26,7.29,7.29,0,0,1,1-.8,12,12,0,0,1,1-.67l1.25-.64,1.31-.48a11.84,11.84,0,0,1,1.19-.31,7.11,7.11,0,0,1,1.23-.15A.86.86,0,0,1,103.82,105.33Z"/></svg>